# xmcd
#
# Track frame offsets:
#	151
#	17885
#	36170
#	50107
#	67300
#	84493
#	99691
#	117415
#	134568
#	153136
#	171497
#	187218
#	205986
#	225963
#
# Disc length: 3288 seconds
#
# Revision: 0
# Processed by: cddbd v1.5.2PL0 Copyright (c) Steve Scherf et al.
# Submitted via: EasyCDDAExtractor 2010.6.0.0
#
DISCID=cf0cd60e
DTITLE=Laura Pausini - Tra te e il mare
DYEAR=2000
DGENRE=
TTITLE0=Siamo noi
TTITLE1=Volevo dirti che ti amo
TTITLE2=Il mio sbaglio più grande
TTITLE3=Tra te e il mare
TTITLE4=Viaggio con te
TTITLE5=Musica sarà
TTITLE6=Anche se non mi vuoi
TTITLE7=Fidati di me
TTITLE8=Ricordami
TTITLE9=Per vivere
TTITLE10=Mentre la notte va
TTITLE11=Come si fa
TTITLE12=Jenny
TTITLE13=The Extra Mile
EXTD=
EXTT0=
EXTT1=
EXTT2=
EXTT3=
EXTT4=
EXTT5=
EXTT6=
EXTT7=
EXTT8=
EXTT9=
EXTT10=
EXTT11=
EXTT12=
EXTT13=
PLAYORDER=
